# xmcd CD database file
#
# Track frame offsets:
#	150
#	34318
#	54721
#	64284
#	110691
#	133437
#	141105
#	155883
#	161251
#	181873
#	190692
#	204670
#	268342
#	276436
#	296888
#
# Disc length: 4138 seconds
#
# Revision: 1
# Processed by: cddbd v1.5.2PL0 Copyright (c) Steve Scherf et al.
# Submitted via: CDex 1.51
#
DISCID=fd10280f
DTITLE=Sabi - Glued On Thin Memories
DYEAR=2010
DGENRE=New Age
TTITLE0=Halfspine
TTITLE1=Three Blind Queens In Cyan
TTITLE2=Battle For The Gentle Ruins
TTITLE3=Screaming Bulb
TTITLE4=Mano [Sabi Remix] - Leon Somov and Jazzu
TTITLE5=Glued On Thin Memories
TTITLE6=Signals Left
TTITLE7=Steum
TTITLE8=Uki 4_1
TTITLE9=Burning On A Tiny Black Lake
TTITLE10=Melting Antennas
TTITLE11=Music For Stones and Dore Cigales
TTITLE12=I L V III
TTITLE13=Mote Diver
TTITLE14=Suspended Monks, Blurred Bolt
EXTD=YEAR: 2010
EXTT0=
EXTT1=
EXTT2=
EXTT3=
EXTT4=
EXTT5=
EXTT6=
EXTT7=
EXTT8=
EXTT9=
EXTT10=
EXTT11=
EXTT12=
EXTT13=
EXTT14=
PLAYORDER=
